<mxfile host="65bd71144e">
    <diagram id="VOS-tVAvLOS94y7pvhUZ" name="Page-1">
        <mxGraphModel dx="1926" dy="2055" grid="1" gridSize="10" guides="1" tooltips="1" connect="1" arrows="1" fold="1" page="1" pageScale="1" pageWidth="827" pageHeight="1169" math="0" shadow="0">
            <root>
                <mxCell id="0"/>
                <mxCell id="1" parent="0"/>
                <mxCell id="93" value="" style="whiteSpace=wrap;html=1;aspect=fixed;fillStyle=solid;fillColor=#1A1A1A;" parent="1" vertex="1">
                    <mxGeometry x="-590" y="-1120" width="2790" height="2790" as="geometry"/>
                </mxCell>
                <mxCell id="7" value="&lt;p style=&quot;line-height: 120%; font-size: 15px;&quot;&gt;&lt;br style=&quot;font-size: 15px;&quot;&gt;&lt;/p&gt;" style="whiteSpace=wrap;html=1;aspect=fixed;align=left;horizontal=1;verticalAlign=top;fontSize=15;fillColor=#647687;fontColor=#ffffff;strokeColor=#314354;" parent="1" vertex="1">
                    <mxGeometry x="-390" y="80" width="1500" height="1500" as="geometry"/>
                </mxCell>
                <mxCell id="37" style="edgeStyle=none;html=1;exitX=0.5;exitY=0;exitDx=0;exitDy=0;entryX=0.5;entryY=1;entryDx=0;entryDy=0;fontSize=15;" parent="1" source="3" target="36" edge="1">
                    <mxGeometry relative="1" as="geometry"/>
                </mxCell>
                <mxCell id="3" value="Element&lt;br style=&quot;font-size: 15px;&quot;&gt;&lt;br style=&quot;font-size: 15px;&quot;&gt;&lt;div style=&quot;text-align: left; font-size: 15px;&quot;&gt;&lt;span style=&quot;background-color: initial; font-size: 15px;&quot;&gt;-id: int&lt;/span&gt;&lt;/div&gt;&lt;div style=&quot;text-align: left; font-size: 15px;&quot;&gt;&lt;span style=&quot;background-color: initial; font-size: 15px;&quot;&gt;&lt;br style=&quot;font-size: 15px;&quot;&gt;&lt;/span&gt;&lt;/div&gt;&lt;div style=&quot;text-align: left; font-size: 15px;&quot;&gt;&lt;span style=&quot;background-color: initial; font-size: 15px;&quot;&gt;__init__(sprite,velocity)&lt;/span&gt;&lt;/div&gt;&lt;div style=&quot;text-align: left; font-size: 15px;&quot;&gt;&lt;span style=&quot;background-color: initial; font-size: 15px;&quot;&gt;get_id():int&lt;/span&gt;&lt;/div&gt;" style="rounded=1;whiteSpace=wrap;html=1;verticalAlign=top;fontSize=15;fillColor=#e51400;fontColor=#ffffff;strokeColor=#B20000;" parent="1" vertex="1">
                    <mxGeometry x="260" y="260" width="280" height="120" as="geometry"/>
                </mxCell>
                <mxCell id="24" style="edgeStyle=none;html=1;exitX=0.5;exitY=0;exitDx=0;exitDy=0;entryX=0;entryY=0.75;entryDx=0;entryDy=0;fontSize=15;" parent="1" source="21" target="5" edge="1">
                    <mxGeometry relative="1" as="geometry"/>
                </mxCell>
                <mxCell id="25" style="edgeStyle=none;html=1;exitX=0.5;exitY=0;exitDx=0;exitDy=0;fontSize=15;" parent="1" source="22" target="5" edge="1">
                    <mxGeometry relative="1" as="geometry"/>
                </mxCell>
                <mxCell id="26" style="edgeStyle=none;html=1;exitX=0.5;exitY=0;exitDx=0;exitDy=0;fontSize=15;entryX=0.034;entryY=0.951;entryDx=0;entryDy=0;entryPerimeter=0;" parent="1" source="23" target="5" edge="1">
                    <mxGeometry relative="1" as="geometry">
                        <mxPoint x="200" y="1040" as="targetPoint"/>
                    </mxGeometry>
                </mxCell>
                <mxCell id="28" style="edgeStyle=none;html=1;exitX=0.5;exitY=0;exitDx=0;exitDy=0;entryX=0.5;entryY=1;entryDx=0;entryDy=0;fontSize=15;" parent="1" source="18" target="5" edge="1">
                    <mxGeometry relative="1" as="geometry"/>
                </mxCell>
                <mxCell id="29" style="edgeStyle=none;html=1;exitX=0.5;exitY=0;exitDx=0;exitDy=0;entryX=0.75;entryY=1;entryDx=0;entryDy=0;fontSize=15;" parent="1" source="19" target="5" edge="1">
                    <mxGeometry relative="1" as="geometry"/>
                </mxCell>
                <mxCell id="5" value="Animal&lt;br style=&quot;font-size: 15px;&quot;&gt;&lt;br style=&quot;font-size: 15px;&quot;&gt;&lt;div style=&quot;text-align: left; font-size: 15px;&quot;&gt;&lt;span style=&quot;background-color: initial; font-size: 15px;&quot;&gt;-bar_life: list[int, int]&lt;/span&gt;&lt;/div&gt;&lt;div style=&quot;text-align: left; font-size: 15px;&quot;&gt;-damage:int&lt;/div&gt;&lt;div style=&quot;text-align: left; font-size: 15px;&quot;&gt;&lt;br style=&quot;font-size: 15px;&quot;&gt;&lt;/div&gt;&lt;div style=&quot;text-align: left; font-size: 15px;&quot;&gt;attack(id):void&lt;/div&gt;&lt;div style=&quot;text-align: left; font-size: 15px;&quot;&gt;losing_life(value):void&lt;br style=&quot;font-size: 15px;&quot;&gt;&lt;/div&gt;&lt;div style=&quot;text-align: left; font-size: 15px;&quot;&gt;&lt;div style=&quot;font-size: 15px;&quot;&gt;&lt;span style=&quot;background-color: initial; font-size: 15px;&quot;&gt;get_life_max():int&lt;/span&gt;&lt;/div&gt;&lt;div style=&quot;font-size: 15px;&quot;&gt;&lt;span style=&quot;background-color: initial; font-size: 15px;&quot;&gt;get_life():int&lt;/span&gt;&lt;/div&gt;&lt;div style=&quot;font-size: 15px;&quot;&gt;movement():void&lt;/div&gt;&lt;/div&gt;" style="rounded=1;whiteSpace=wrap;html=1;verticalAlign=top;align=center;fontSize=15;fillColor=#a0522d;fontColor=#ffffff;strokeColor=#6D1F00;" parent="1" vertex="1">
                    <mxGeometry x="260" y="865" width="290" height="205" as="geometry"/>
                </mxCell>
                <mxCell id="6" value="" style="endArrow=classic;html=1;entryX=0.5;entryY=1;entryDx=0;entryDy=0;exitX=0.5;exitY=0;exitDx=0;exitDy=0;fontSize=15;" parent="1" source="5" target="3" edge="1">
                    <mxGeometry width="50" height="50" relative="1" as="geometry">
                        <mxPoint x="270" y="530" as="sourcePoint"/>
                        <mxPoint x="220" y="580" as="targetPoint"/>
                    </mxGeometry>
                </mxCell>
                <mxCell id="8" value="Cow&lt;br style=&quot;font-size: 15px;&quot;&gt;&lt;br style=&quot;font-size: 15px;&quot;&gt;__init__(): void" style="rounded=1;whiteSpace=wrap;html=1;fontSize=15;fillColor=#a0522d;fontColor=#ffffff;strokeColor=#6D1F00;verticalAlign=top;" parent="1" vertex="1">
                    <mxGeometry x="115" y="1150" width="125" height="90" as="geometry"/>
                </mxCell>
                <mxCell id="9" value="" style="endArrow=classic;html=1;entryX=0.25;entryY=1;entryDx=0;entryDy=0;exitX=0.5;exitY=0;exitDx=0;exitDy=0;fontSize=15;" parent="1" source="8" target="5" edge="1">
                    <mxGeometry width="50" height="50" relative="1" as="geometry">
                        <mxPoint x="190.00000000000045" y="1140" as="sourcePoint"/>
                        <mxPoint x="820" y="1240" as="targetPoint"/>
                    </mxGeometry>
                </mxCell>
                <mxCell id="10" value="Pig&lt;br style=&quot;font-size: 15px;&quot;&gt;&lt;br style=&quot;font-size: 15px;&quot;&gt;__init__(): void" style="rounded=1;whiteSpace=wrap;html=1;fontSize=15;fillColor=#a0522d;fontColor=#ffffff;strokeColor=#6D1F00;verticalAlign=top;" parent="1" vertex="1">
                    <mxGeometry x="270" y="1150" width="120" height="90" as="geometry"/>
                </mxCell>
                <mxCell id="11" value="" style="endArrow=classic;html=1;entryX=0.5;entryY=1;entryDx=0;entryDy=0;exitX=0.5;exitY=0;exitDx=0;exitDy=0;fontSize=15;" parent="1" source="10" target="5" edge="1">
                    <mxGeometry width="50" height="50" relative="1" as="geometry">
                        <mxPoint x="510" y="1090" as="sourcePoint"/>
                        <mxPoint x="460" y="1140" as="targetPoint"/>
                    </mxGeometry>
                </mxCell>
                <mxCell id="12" value="Snake&lt;br style=&quot;font-size: 15px;&quot;&gt;&lt;br style=&quot;font-size: 15px;&quot;&gt;-poison&lt;br style=&quot;font-size: 15px;&quot;&gt;&lt;br style=&quot;font-size: 15px;&quot;&gt;__init__(poison:int)&lt;br style=&quot;font-size: 15px;&quot;&gt;poison: int" style="rounded=1;whiteSpace=wrap;html=1;fontSize=15;fillColor=#a0522d;fontColor=#ffffff;strokeColor=#6D1F00;" parent="1" vertex="1">
                    <mxGeometry x="410" y="1140" width="120" height="110" as="geometry"/>
                </mxCell>
                <mxCell id="13" value="" style="endArrow=classic;html=1;entryX=0.5;entryY=1;entryDx=0;entryDy=0;exitX=0.5;exitY=0;exitDx=0;exitDy=0;fontSize=15;" parent="1" source="12" target="5" edge="1">
                    <mxGeometry width="50" height="50" relative="1" as="geometry">
                        <mxPoint x="510" y="1090" as="sourcePoint"/>
                        <mxPoint x="460" y="1140" as="targetPoint"/>
                    </mxGeometry>
                </mxCell>
                <mxCell id="14" value="&lt;font color=&quot;#e6e6e6&quot; style=&quot;font-size: 15px;&quot;&gt;Main&lt;/font&gt;" style="ellipse;whiteSpace=wrap;html=1;fillStyle=solid;fillColor=#1A1A1A;fontSize=15;strokeColor=#E6E6E6;" parent="1" vertex="1">
                    <mxGeometry x="1534" y="150" width="120" height="80" as="geometry"/>
                </mxCell>
                <mxCell id="16" value="elements" style="rounded=0;whiteSpace=wrap;html=1;container=1;fontSize=15;fillColor=#647687;fontColor=#ffffff;strokeColor=#314354;" parent="1" vertex="1">
                    <mxGeometry x="-390" y="40" width="170" height="40" as="geometry">
                        <mxRectangle x="-390" y="40" width="100" height="30" as="alternateBounds"/>
                    </mxGeometry>
                </mxCell>
                <mxCell id="18" value="Sheep&lt;br style=&quot;font-size: 15px;&quot;&gt;&lt;br style=&quot;font-size: 15px;&quot;&gt;__init__(): void" style="rounded=1;whiteSpace=wrap;html=1;fontSize=15;fillColor=#a0522d;fontColor=#ffffff;strokeColor=#6D1F00;verticalAlign=top;" parent="1" vertex="1">
                    <mxGeometry x="550" y="1140" width="120" height="100" as="geometry"/>
                </mxCell>
                <mxCell id="19" value="Rabbit&lt;br style=&quot;font-size: 15px;&quot;&gt;&lt;br style=&quot;font-size: 15px;&quot;&gt;__init__(): void" style="rounded=1;whiteSpace=wrap;html=1;fontSize=15;fillColor=#a0522d;fontColor=#ffffff;strokeColor=#6D1F00;verticalAlign=top;" parent="1" vertex="1">
                    <mxGeometry x="690" y="1140" width="120" height="100" as="geometry"/>
                </mxCell>
                <mxCell id="20" value="Fish&lt;br style=&quot;font-size: 15px;&quot;&gt;&lt;br style=&quot;font-size: 15px;&quot;&gt;__init__(): void" style="rounded=1;whiteSpace=wrap;html=1;fontSize=15;fillColor=#a0522d;fontColor=#ffffff;strokeColor=#6D1F00;verticalAlign=top;" parent="1" vertex="1">
                    <mxGeometry x="830" y="1140" width="120" height="100" as="geometry"/>
                </mxCell>
                <mxCell id="21" value="Falcon&lt;br style=&quot;font-size: 15px;&quot;&gt;&lt;br style=&quot;font-size: 15px;&quot;&gt;__init__(): void" style="rounded=1;whiteSpace=wrap;html=1;verticalAlign=top;fontSize=15;fillColor=#a0522d;fontColor=#ffffff;strokeColor=#6D1F00;" parent="1" vertex="1">
                    <mxGeometry x="-305" y="1150" width="120" height="90" as="geometry"/>
                </mxCell>
                <mxCell id="22" value="Wolf&lt;br style=&quot;font-size: 15px;&quot;&gt;&lt;br style=&quot;font-size: 15px;&quot;&gt;__init__(): void" style="rounded=1;whiteSpace=wrap;html=1;verticalAlign=top;fontSize=15;fillColor=#a0522d;fontColor=#ffffff;strokeColor=#6D1F00;" parent="1" vertex="1">
                    <mxGeometry x="-165" y="1150" width="125" height="90" as="geometry"/>
                </mxCell>
                <mxCell id="23" value="Bear&lt;br style=&quot;font-size: 15px;&quot;&gt;&lt;br style=&quot;font-size: 15px;&quot;&gt;__init__(): void" style="rounded=1;whiteSpace=wrap;html=1;fontSize=15;fillColor=#a0522d;fontColor=#ffffff;strokeColor=#6D1F00;verticalAlign=top;" parent="1" vertex="1">
                    <mxGeometry x="-25" y="1150" width="125" height="90" as="geometry"/>
                </mxCell>
                <mxCell id="32" style="edgeStyle=none;html=1;exitX=0.5;exitY=0;exitDx=0;exitDy=0;entryX=1;entryY=0.5;entryDx=0;entryDy=0;fontSize=15;" parent="1" source="27" target="5" edge="1">
                    <mxGeometry relative="1" as="geometry"/>
                </mxCell>
                <mxCell id="27" value="Human&lt;br style=&quot;font-size: 15px;&quot;&gt;&lt;br style=&quot;font-size: 15px;&quot;&gt;&lt;div style=&quot;font-size: 15px;&quot;&gt;&lt;span style=&quot;background-color: initial; font-size: 15px;&quot;&gt;-inventaire: dict{ stone: 0,wood: 0,leather: 0,wool: 0}&lt;/span&gt;&lt;br style=&quot;font-size: 15px;&quot;&gt;&lt;/div&gt;&lt;div style=&quot;text-align: left; font-size: 15px;&quot;&gt;&lt;span style=&quot;background-color: initial; font-size: 15px;&quot;&gt;-arme: bool&lt;/span&gt;&lt;/div&gt;&lt;div style=&quot;text-align: left; font-size: 15px;&quot;&gt;&lt;span style=&quot;background-color: initial; font-size: 15px;&quot;&gt;-outils: bool&lt;/span&gt;&lt;/div&gt;&lt;div style=&quot;text-align: left; font-size: 15px;&quot;&gt;&lt;br style=&quot;font-size: 15px;&quot;&gt;&lt;/div&gt;&lt;div style=&quot;text-align: left; font-size: 15px;&quot;&gt;&lt;span style=&quot;background-color: initial; font-size: 15px;&quot;&gt;__init__(): void&lt;/span&gt;&lt;/div&gt;&lt;div style=&quot;text-align: left; font-size: 15px;&quot;&gt;recovering_life(value):void&lt;/div&gt;&lt;div style=&quot;text-align: left; font-size: 15px;&quot;&gt;&lt;span style=&quot;background-color: initial; font-size: 15px;&quot;&gt;crafting(inventaire):void&lt;/span&gt;&lt;/div&gt;&lt;div style=&quot;font-size: 15px;&quot;&gt;&lt;span style=&quot;background-color: initial; font-size: 15px;&quot;&gt;&lt;br style=&quot;font-size: 15px;&quot;&gt;&lt;/span&gt;&lt;/div&gt;" style="rounded=1;whiteSpace=wrap;html=1;verticalAlign=top;points=[[0,0,0,0,0],[0,0.14,0,0,0],[0,0.4,0,0,0],[0,0.75,0,0,0],[0,1,0,0,0],[0.25,0,0,0,0],[0.25,1,0,0,0],[0.5,0,0,0,0],[0.5,1,0,0,0],[0.75,0,0,0,0],[0.75,1,0,0,0],[1,0,0,0,0],[1,0.14,0,0,0],[1,0.4,0,0,0],[1,0.75,0,0,0],[1,1,0,0,0]];fontSize=15;align=center;fillColor=#f0a30a;strokeColor=#BD7000;fontColor=#000000;" parent="1" vertex="1">
                    <mxGeometry x="560" y="460" width="460" height="280" as="geometry"/>
                </mxCell>
                <mxCell id="30" value="" style="endArrow=classic;html=1;entryX=0.973;entryY=0.956;entryDx=0;entryDy=0;exitX=0.5;exitY=0;exitDx=0;exitDy=0;fontSize=15;entryPerimeter=0;" parent="1" source="20" target="5" edge="1">
                    <mxGeometry width="50" height="50" relative="1" as="geometry">
                        <mxPoint x="580" y="1090" as="sourcePoint"/>
                        <mxPoint x="530" y="1140" as="targetPoint"/>
                    </mxGeometry>
                </mxCell>
                <mxCell id="47" style="edgeStyle=none;html=1;exitX=1;exitY=0.5;exitDx=0;exitDy=0;entryX=0;entryY=0.5;entryDx=0;entryDy=0;fontSize=15;" parent="1" source="34" target="3" edge="1">
                    <mxGeometry relative="1" as="geometry">
                        <mxPoint x="255" y="410" as="targetPoint"/>
                    </mxGeometry>
                </mxCell>
                <mxCell id="34" value="Ressource&lt;br style=&quot;font-size: 15px;&quot;&gt;&lt;br style=&quot;font-size: 15px;&quot;&gt;-durabilite:int&lt;br style=&quot;font-size: 15px;&quot;&gt;&lt;br style=&quot;font-size: 15px;&quot;&gt;__init__(durabilite:int)&amp;nbsp;" style="rounded=1;whiteSpace=wrap;html=1;verticalAlign=top;fontSize=15;fillColor=#6d8764;fontColor=#ffffff;strokeColor=#3A5431;" parent="1" vertex="1">
                    <mxGeometry x="-170" y="410" width="190" height="130" as="geometry"/>
                </mxCell>
                <mxCell id="35" value="" style="endArrow=none;html=1;exitX=0.001;exitY=0.337;exitDx=0;exitDy=0;fontSize=15;entryX=1.001;entryY=0.337;entryDx=0;entryDy=0;entryPerimeter=0;exitPerimeter=0;" parent="1" source="21" target="21" edge="1">
                    <mxGeometry width="50" height="50" relative="1" as="geometry">
                        <mxPoint x="355" y="760" as="sourcePoint"/>
                        <mxPoint x="-180" y="1180" as="targetPoint"/>
                    </mxGeometry>
                </mxCell>
                <mxCell id="36" value="Sprite" style="rounded=1;whiteSpace=wrap;html=1;verticalAlign=top;fontSize=15;fillColor=#e51400;fontColor=#ffffff;strokeColor=#B20000;" parent="1" vertex="1">
                    <mxGeometry x="340" y="160" width="120" height="60" as="geometry"/>
                </mxCell>
                <mxCell id="39" style="edgeStyle=none;html=1;exitX=0.5;exitY=0;exitDx=0;exitDy=0;entryX=0.25;entryY=1;entryDx=0;entryDy=0;fontSize=15;" parent="1" source="38" target="34" edge="1">
                    <mxGeometry relative="1" as="geometry"/>
                </mxCell>
                <mxCell id="38" value="Three&lt;br style=&quot;font-size: 15px;&quot;&gt;&lt;br style=&quot;font-size: 15px;&quot;&gt;__init__(): void" style="rounded=1;whiteSpace=wrap;html=1;fontSize=15;fillColor=#6d8764;fontColor=#ffffff;strokeColor=#3A5431;" parent="1" vertex="1">
                    <mxGeometry x="-320" y="585" width="120" height="60" as="geometry"/>
                </mxCell>
                <mxCell id="44" style="edgeStyle=none;html=1;exitX=0.5;exitY=0;exitDx=0;exitDy=0;entryX=0.5;entryY=1;entryDx=0;entryDy=0;fontSize=15;" parent="1" source="40" target="34" edge="1">
                    <mxGeometry relative="1" as="geometry"/>
                </mxCell>
                <mxCell id="40" value="Stone&lt;br style=&quot;font-size: 15px;&quot;&gt;&lt;br style=&quot;font-size: 15px;&quot;&gt;__init__(): void" style="rounded=1;whiteSpace=wrap;html=1;fontSize=15;fillColor=#6d8764;fontColor=#ffffff;strokeColor=#3A5431;" parent="1" vertex="1">
                    <mxGeometry x="-190" y="585" width="120" height="60" as="geometry"/>
                </mxCell>
                <mxCell id="45" style="edgeStyle=none;html=1;exitX=0.5;exitY=0;exitDx=0;exitDy=0;entryX=0.5;entryY=1;entryDx=0;entryDy=0;fontSize=15;" parent="1" source="41" target="34" edge="1">
                    <mxGeometry relative="1" as="geometry"/>
                </mxCell>
                <mxCell id="41" value="Plant&lt;br style=&quot;font-size: 15px;&quot;&gt;&lt;br style=&quot;font-size: 15px;&quot;&gt;__init__(): void" style="rounded=1;whiteSpace=wrap;html=1;fontSize=15;fillColor=#6d8764;fontColor=#ffffff;strokeColor=#3A5431;" parent="1" vertex="1">
                    <mxGeometry x="-60" y="585" width="120" height="60" as="geometry"/>
                </mxCell>
                <mxCell id="46" style="edgeStyle=none;html=1;exitX=0.5;exitY=0;exitDx=0;exitDy=0;entryX=0.75;entryY=1;entryDx=0;entryDy=0;fontSize=15;" parent="1" source="42" target="34" edge="1">
                    <mxGeometry relative="1" as="geometry"/>
                </mxCell>
                <mxCell id="42" value="Water&lt;br style=&quot;font-size: 15px;&quot;&gt;&lt;br style=&quot;font-size: 15px;&quot;&gt;__init__(): void" style="rounded=1;whiteSpace=wrap;html=1;fontSize=15;fillColor=#6d8764;fontColor=#ffffff;strokeColor=#3A5431;" parent="1" vertex="1">
                    <mxGeometry x="70" y="585" width="120" height="60" as="geometry"/>
                </mxCell>
                <mxCell id="48" value="" style="endArrow=none;html=1;entryX=0;entryY=0.5;entryDx=0;entryDy=0;exitX=1;exitY=0.5;exitDx=0;exitDy=0;fontSize=15;" parent="1" source="38" target="38" edge="1">
                    <mxGeometry width="50" height="50" relative="1" as="geometry">
                        <mxPoint x="-60" y="605" as="sourcePoint"/>
                        <mxPoint x="-10" y="555" as="targetPoint"/>
                    </mxGeometry>
                </mxCell>
                <mxCell id="49" value="" style="endArrow=none;html=1;entryX=0;entryY=0.5;entryDx=0;entryDy=0;exitX=1;exitY=0.5;exitDx=0;exitDy=0;fontSize=15;" parent="1" source="40" target="40" edge="1">
                    <mxGeometry width="50" height="50" relative="1" as="geometry">
                        <mxPoint x="-60" y="605" as="sourcePoint"/>
                        <mxPoint x="-10" y="555" as="targetPoint"/>
                    </mxGeometry>
                </mxCell>
                <mxCell id="50" value="" style="endArrow=none;html=1;exitX=1;exitY=0.5;exitDx=0;exitDy=0;entryX=0;entryY=0.5;entryDx=0;entryDy=0;fontSize=15;" parent="1" source="41" target="41" edge="1">
                    <mxGeometry width="50" height="50" relative="1" as="geometry">
                        <mxPoint x="-60" y="605" as="sourcePoint"/>
                        <mxPoint x="-10" y="555" as="targetPoint"/>
                    </mxGeometry>
                </mxCell>
                <mxCell id="51" value="" style="endArrow=none;html=1;entryX=0;entryY=0.5;entryDx=0;entryDy=0;exitX=1;exitY=0.5;exitDx=0;exitDy=0;fontSize=15;" parent="1" source="42" target="42" edge="1">
                    <mxGeometry width="50" height="50" relative="1" as="geometry">
                        <mxPoint x="-60" y="605" as="sourcePoint"/>
                        <mxPoint x="-10" y="555" as="targetPoint"/>
                    </mxGeometry>
                </mxCell>
                <mxCell id="52" value="" style="endArrow=none;html=1;entryX=0;entryY=0.25;entryDx=0;entryDy=0;exitX=1;exitY=0.25;exitDx=0;exitDy=0;verticalAlign=top;fontSize=15;" parent="1" source="34" target="34" edge="1">
                    <mxGeometry width="50" height="50" relative="1" as="geometry">
                        <mxPoint x="35" y="655" as="sourcePoint"/>
                        <mxPoint x="85" y="605" as="targetPoint"/>
                    </mxGeometry>
                </mxCell>
                <mxCell id="54" value="" style="endArrow=none;html=1;entryX=0;entryY=0.5;entryDx=0;entryDy=0;exitX=1;exitY=0.5;exitDx=0;exitDy=0;fontSize=15;" parent="1" source="34" target="34" edge="1">
                    <mxGeometry width="50" height="50" relative="1" as="geometry">
                        <mxPoint x="45" y="655" as="sourcePoint"/>
                        <mxPoint x="95" y="605" as="targetPoint"/>
                    </mxGeometry>
                </mxCell>
                <mxCell id="56" value="" style="endArrow=none;html=1;exitX=0;exitY=0.25;exitDx=0;exitDy=0;entryX=1;entryY=0.25;entryDx=0;entryDy=0;fontSize=15;" parent="1" source="12" target="12" edge="1">
                    <mxGeometry width="50" height="50" relative="1" as="geometry">
                        <mxPoint x="550" y="1000" as="sourcePoint"/>
                        <mxPoint x="600" y="950" as="targetPoint"/>
                    </mxGeometry>
                </mxCell>
                <mxCell id="57" value="" style="endArrow=none;html=1;exitX=-0.001;exitY=0.155;exitDx=0;exitDy=0;entryX=1.004;entryY=0.148;entryDx=0;entryDy=0;fontSize=15;exitPerimeter=0;entryPerimeter=0;" parent="1" source="5" target="5" edge="1">
                    <mxGeometry width="50" height="50" relative="1" as="geometry">
                        <mxPoint x="550" y="1000" as="sourcePoint"/>
                        <mxPoint x="600" y="950" as="targetPoint"/>
                    </mxGeometry>
                </mxCell>
                <mxCell id="58" value="" style="endArrow=none;html=1;entryX=0;entryY=0.25;entryDx=0;entryDy=0;exitX=1;exitY=0.25;exitDx=0;exitDy=0;fontSize=15;" parent="1" source="3" target="3" edge="1">
                    <mxGeometry width="50" height="50" relative="1" as="geometry">
                        <mxPoint x="470" y="370" as="sourcePoint"/>
                        <mxPoint x="520" y="320" as="targetPoint"/>
                    </mxGeometry>
                </mxCell>
                <mxCell id="59" value="" style="endArrow=none;html=1;exitX=0;exitY=0.14;exitDx=0;exitDy=0;entryX=1;entryY=0.14;entryDx=0;entryDy=0;entryPerimeter=0;exitPerimeter=0;fontSize=15;" parent="1" source="27" target="27" edge="1">
                    <mxGeometry width="50" height="50" relative="1" as="geometry">
                        <mxPoint x="1130" y="870" as="sourcePoint"/>
                        <mxPoint x="1180" y="820" as="targetPoint"/>
                    </mxGeometry>
                </mxCell>
                <mxCell id="60" value="" style="endArrow=none;html=1;entryX=1;entryY=0.4;entryDx=0;entryDy=0;exitX=0;exitY=0.4;exitDx=0;exitDy=0;entryPerimeter=0;exitPerimeter=0;fontSize=15;" parent="1" source="27" target="27" edge="1">
                    <mxGeometry width="50" height="50" relative="1" as="geometry">
                        <mxPoint x="1130" y="870" as="sourcePoint"/>
                        <mxPoint x="1180" y="820" as="targetPoint"/>
                    </mxGeometry>
                </mxCell>
                <mxCell id="61" value="" style="endArrow=none;html=1;entryX=-0.001;entryY=0.399;entryDx=0;entryDy=0;exitX=1.004;exitY=0.399;exitDx=0;exitDy=0;fontSize=15;entryPerimeter=0;exitPerimeter=0;" parent="1" source="5" target="5" edge="1">
                    <mxGeometry width="50" height="50" relative="1" as="geometry">
                        <mxPoint x="440" y="1110" as="sourcePoint"/>
                        <mxPoint x="490" y="1060" as="targetPoint"/>
                    </mxGeometry>
                </mxCell>
                <mxCell id="65" value="" style="whiteSpace=wrap;html=1;aspect=fixed;fontSize=15;fillColor=#a0522d;fontColor=#ffffff;strokeColor=#6D1F00;" parent="1" vertex="1">
                    <mxGeometry x="-305" y="-950" width="800" height="800" as="geometry"/>
                </mxCell>
                <mxCell id="66" value="terrain" style="rounded=0;whiteSpace=wrap;html=1;fontSize=15;fillColor=#a0522d;fontColor=#ffffff;strokeColor=#6D1F00;" parent="1" vertex="1">
                    <mxGeometry x="-305" y="-1000" width="210" height="50" as="geometry"/>
                </mxCell>
                <mxCell id="67" value="Terrain&lt;br style=&quot;font-size: 15px;&quot;&gt;&lt;br style=&quot;font-size: 15px;&quot;&gt;&lt;br style=&quot;font-size: 15px;&quot;&gt;__init__():void&lt;br style=&quot;font-size: 15px;&quot;&gt;is_free_place(coordonnee):bool&lt;br style=&quot;font-size: 15px;&quot;&gt;get_random_free_place():(int,int)&lt;br style=&quot;font-size: 15px;&quot;&gt;place_ressources(list[Ressource]):void&lt;br style=&quot;font-size: 15px;&quot;&gt;place_animals(list[Animal]):void&lt;br style=&quot;font-size: 15px;&quot;&gt;" style="rounded=1;whiteSpace=wrap;html=1;verticalAlign=top;fontSize=15;fillColor=#6d8764;fontColor=#ffffff;strokeColor=#3A5431;" parent="1" vertex="1">
                    <mxGeometry x="-215" y="-860" width="540" height="530" as="geometry"/>
                </mxCell>
                <mxCell id="82" style="edgeStyle=none;html=1;exitX=0.5;exitY=0;exitDx=0;exitDy=0;entryX=0.25;entryY=1;entryDx=0;entryDy=0;fontSize=15;" parent="1" source="68" target="5" edge="1">
                    <mxGeometry relative="1" as="geometry"/>
                </mxCell>
                <mxCell id="68" value="Car&lt;br style=&quot;font-size: 15px;&quot;&gt;&lt;br style=&quot;font-size: 15px;&quot;&gt;-damage&lt;br style=&quot;font-size: 15px;&quot;&gt;&lt;br style=&quot;font-size: 15px;&quot;&gt;__init__():void" style="rounded=1;whiteSpace=wrap;html=1;fontSize=15;fillColor=#a0522d;fontColor=#ffffff;strokeColor=#6D1F00;" parent="1" vertex="1">
                    <mxGeometry x="225" y="1280" width="130" height="100" as="geometry"/>
                </mxCell>
                <mxCell id="69" value="" style="whiteSpace=wrap;html=1;aspect=fixed;fontSize=15;fillColor=#a20025;fontColor=#ffffff;strokeColor=#6F0000;" parent="1" vertex="1">
                    <mxGeometry x="1194" y="-850" width="800" height="800" as="geometry"/>
                </mxCell>
                <mxCell id="70" value="interface" style="rounded=0;whiteSpace=wrap;html=1;fontSize=15;fillColor=#a20025;fontColor=#ffffff;strokeColor=#6F0000;" parent="1" vertex="1">
                    <mxGeometry x="1194" y="-900" width="210" height="50" as="geometry"/>
                </mxCell>
                <mxCell id="71" value="Accueill&lt;br style=&quot;font-size: 15px;&quot;&gt;&lt;br style=&quot;font-size: 15px;&quot;&gt;&lt;div style=&quot;text-align: left; font-size: 15px;&quot;&gt;&lt;span style=&quot;background-color: initial; font-size: 15px;&quot;&gt;+ecran: tuple(HEIGHT, WEIGHT)&lt;/span&gt;&lt;/div&gt;&lt;div style=&quot;text-align: left; font-size: 15px;&quot;&gt;&lt;span style=&quot;background-color: initial; font-size: 15px;&quot;&gt;+font: Font&lt;/span&gt;&lt;/div&gt;&lt;div style=&quot;text-align: left; font-size: 15px;&quot;&gt;&lt;span style=&quot;background-color: initial; font-size: 15px;&quot;&gt;+bouton:&lt;/span&gt;&lt;/div&gt;&lt;div style=&quot;text-align: left; font-size: 15px;&quot;&gt;&lt;br style=&quot;font-size: 15px;&quot;&gt;&lt;/div&gt;&lt;div style=&quot;text-align: left; font-size: 15px;&quot;&gt;&lt;span style=&quot;background-color: initial; font-size: 15px;&quot;&gt;__init__(largeur:int, longueur:int)&lt;/span&gt;&lt;/div&gt;&lt;div style=&quot;text-align: left; font-size: 15px;&quot;&gt;&lt;span style=&quot;background-color: initial; font-size: 15px;&quot;&gt;affiche_accueil():void&lt;/span&gt;&lt;/div&gt;&lt;div style=&quot;text-align: left; font-size: 15px;&quot;&gt;&lt;span style=&quot;background-color: initial; font-size: 15px;&quot;&gt;new_game(config):void&lt;/span&gt;&lt;/div&gt;&lt;div style=&quot;text-align: left; font-size: 15px;&quot;&gt;&lt;span style=&quot;background-color: initial; font-size: 15px;&quot;&gt;setting():void&lt;/span&gt;&lt;/div&gt;&lt;div style=&quot;text-align: left; font-size: 15px;&quot;&gt;&lt;span style=&quot;background-color: initial; font-size: 15px;&quot;&gt;credits():&lt;/span&gt;&lt;/div&gt;&lt;div style=&quot;text-align: left; font-size: 15px;&quot;&gt;&lt;br style=&quot;font-size: 15px;&quot;&gt;&lt;/div&gt;" style="rounded=1;whiteSpace=wrap;html=1;verticalAlign=top;fontSize=15;fillColor=#76608a;fontColor=#ffffff;strokeColor=#432D57;" parent="1" vertex="1">
                    <mxGeometry x="1243" y="-720" width="329" height="270" as="geometry"/>
                </mxCell>
                <mxCell id="72" value="&lt;div style=&quot;&quot;&gt;&lt;span style=&quot;color: rgb(230, 230, 230); background-color: initial;&quot;&gt;config&lt;/span&gt;&lt;/div&gt;&lt;font color=&quot;#e6e6e6&quot;&gt;&lt;div style=&quot;&quot;&gt;&lt;br&gt;&lt;/div&gt;&lt;/font&gt;&lt;div style=&quot;font-family: &amp;quot;Droid Sans Mono&amp;quot;, &amp;quot;monospace&amp;quot;, monospace; font-size: 15px; line-height: 19px;&quot;&gt;&lt;div style=&quot;text-align: left; font-size: 15px;&quot;&gt;&lt;font color=&quot;#e6e6e6&quot;&gt;HEIGHT = 600&lt;/font&gt;&lt;/div&gt;&lt;div style=&quot;text-align: left; font-size: 15px;&quot;&gt;&lt;font color=&quot;#e6e6e6&quot;&gt;WEIGHT = 900&lt;/font&gt;&lt;/div&gt;&lt;div style=&quot;text-align: left; font-size: 15px;&quot;&gt;&lt;span style=&quot;color: rgb(230, 230, 230); background-color: initial;&quot;&gt;COWS_COUNT = 5&lt;/span&gt;&lt;br&gt;&lt;/div&gt;&lt;div style=&quot;text-align: left; font-size: 15px;&quot;&gt;&lt;font color=&quot;#e6e6e6&quot;&gt;SHEEP_COUNT = 10&lt;/font&gt;&lt;/div&gt;&lt;div style=&quot;text-align: left; font-size: 15px;&quot;&gt;&lt;font color=&quot;#e6e6e6&quot;&gt;RABBIT_COUNT = 30&lt;/font&gt;&lt;/div&gt;&lt;div style=&quot;text-align: left; font-size: 15px;&quot;&gt;&lt;font color=&quot;#e6e6e6&quot;&gt;BEAR_COUNT = 1&lt;/font&gt;&lt;/div&gt;&lt;div style=&quot;text-align: left; font-size: 15px;&quot;&gt;&lt;font color=&quot;#e6e6e6&quot;&gt;SNAKE_COUNT = 10&lt;/font&gt;&lt;/div&gt;&lt;div style=&quot;text-align: left; font-size: 15px;&quot;&gt;&lt;font color=&quot;#e6e6e6&quot;&gt;WOLF_COUNT = 2&lt;/font&gt;&lt;/div&gt;&lt;div style=&quot;text-align: left; font-size: 15px;&quot;&gt;&lt;font color=&quot;#e6e6e6&quot;&gt;STONE_COUNT = 10&lt;/font&gt;&lt;/div&gt;&lt;div style=&quot;font-size: 15px;&quot;&gt;&lt;div style=&quot;text-align: left; font-size: 15px;&quot;&gt;&lt;font color=&quot;#e6e6e6&quot;&gt;WOOD_COUNT = 20&lt;/font&gt;&lt;/div&gt;&lt;div style=&quot;text-align: left; font-size: 15px;&quot;&gt;&lt;font color=&quot;#e6e6e6&quot;&gt;PLANT_COUNT = 10&lt;/font&gt;&lt;/div&gt;&lt;div style=&quot;font-size: 15px;&quot;&gt;&lt;div style=&quot;text-align: left; font-size: 15px;&quot;&gt;&lt;font color=&quot;#e6e6e6&quot;&gt;PIG_COUNT = 20&lt;/font&gt;&lt;/div&gt;&lt;div style=&quot;text-align: left; font-size: 15px;&quot;&gt;&lt;font color=&quot;#e6e6e6&quot;&gt;FALCON_COUNT = 5&lt;/font&gt;&lt;/div&gt;&lt;/div&gt;&lt;div style=&quot;font-size: 15px;&quot;&gt;&lt;div style=&quot;text-align: left; font-size: 15px;&quot;&gt;&lt;font color=&quot;#e6e6e6&quot;&gt;FISH_COUNT = 20&lt;/font&gt;&lt;/div&gt;&lt;div style=&quot;text-align: left; font-size: 15px;&quot;&gt;&lt;span style=&quot;color: rgb(230, 230, 230);&quot;&gt;CAR_COUNT = 4&lt;/span&gt;&lt;font color=&quot;#e6e6e6&quot;&gt;&lt;br&gt;&lt;/font&gt;&lt;/div&gt;&lt;/div&gt;&lt;/div&gt;&lt;/div&gt;" style="rounded=0;whiteSpace=wrap;html=1;verticalAlign=top;fontSize=15;fillStyle=solid;fillColor=#1A1A1A;strokeColor=#F0F0F0;" parent="1" vertex="1">
                    <mxGeometry x="1649" y="380" width="300" height="560" as="geometry"/>
                </mxCell>
                <mxCell id="73" value="" style="endArrow=none;html=1;fontColor=#F0F0F0;entryX=0.998;entryY=0.05;entryDx=0;entryDy=0;entryPerimeter=0;exitX=0.002;exitY=0.046;exitDx=0;exitDy=0;exitPerimeter=0;fontSize=15;strokeColor=#E6E6E6;" parent="1" source="72" target="72" edge="1">
                    <mxGeometry width="50" height="50" relative="1" as="geometry">
                        <mxPoint x="1950" y="460" as="sourcePoint"/>
                        <mxPoint x="2000" y="410" as="targetPoint"/>
                    </mxGeometry>
                </mxCell>
                <mxCell id="77" value="" style="endArrow=none;html=1;fontColor=#F0F0F0;entryX=0.5;entryY=1;entryDx=0;entryDy=0;exitX=0.5;exitY=0;exitDx=0;exitDy=0;fillColor=#6a00ff;strokeColor=#3700CC;fontSize=15;" parent="1" source="14" target="69" edge="1">
                    <mxGeometry width="50" height="50" relative="1" as="geometry">
                        <mxPoint x="1010" y="190" as="sourcePoint"/>
                        <mxPoint x="1060" y="140" as="targetPoint"/>
                    </mxGeometry>
                </mxCell>
                <mxCell id="78" value="&amp;nbsp;import &amp;gt;&amp;nbsp;" style="edgeLabel;html=1;align=center;verticalAlign=middle;resizable=0;points=[];fontColor=#F0F0F0;rotation=90;fontSize=15;labelBackgroundColor=#1A1A1A;" parent="77" vertex="1" connectable="0">
                    <mxGeometry x="-0.1009" y="2" relative="1" as="geometry">
                        <mxPoint as="offset"/>
                    </mxGeometry>
                </mxCell>
                <mxCell id="79" value="" style="endArrow=none;html=1;fontColor=#F0F0F0;exitX=1;exitY=0.376;exitDx=0;exitDy=0;exitPerimeter=0;entryX=0;entryY=0.25;entryDx=0;entryDy=0;fillColor=#6a00ff;strokeColor=#3700CC;fontSize=15;" parent="1" source="65" target="69" edge="1">
                    <mxGeometry width="50" height="50" relative="1" as="geometry">
                        <mxPoint x="1420" y="450" as="sourcePoint"/>
                        <mxPoint x="1330" y="-1095" as="targetPoint"/>
                    </mxGeometry>
                </mxCell>
                <mxCell id="83" value="" style="endArrow=none;html=1;exitX=0.75;exitY=0;exitDx=0;exitDy=0;entryX=0;entryY=0.25;entryDx=0;entryDy=0;fillColor=#6a00ff;strokeColor=#3700CC;fontSize=15;" parent="1" source="7" target="69" edge="1">
                    <mxGeometry width="50" height="50" relative="1" as="geometry">
                        <mxPoint x="840" y="-320" as="sourcePoint"/>
                        <mxPoint x="360" y="-630" as="targetPoint"/>
                        <Array as="points">
                            <mxPoint x="730" y="-650"/>
                        </Array>
                    </mxGeometry>
                </mxCell>
                <mxCell id="86" value="&lt;span style=&quot;background-color: rgb(26, 26, 26);&quot;&gt;&lt;font color=&quot;#e6e6e6&quot;&gt;&amp;nbsp;&amp;lt; import&amp;nbsp;&amp;nbsp;&lt;/font&gt;&lt;/span&gt;" style="edgeLabel;html=1;align=center;verticalAlign=middle;resizable=0;points=[];fontSize=15;labelBorderColor=none;" parent="83" vertex="1" connectable="0">
                    <mxGeometry x="0.5381" y="3" relative="1" as="geometry">
                        <mxPoint x="1" as="offset"/>
                    </mxGeometry>
                </mxCell>
                <mxCell id="88" value="Setting&lt;br style=&quot;font-size: 15px;&quot;&gt;&lt;br style=&quot;font-size: 15px;&quot;&gt;&lt;div style=&quot;text-align: left; font-size: 15px;&quot;&gt;&lt;span style=&quot;background-color: initial; font-size: 15px;&quot;&gt;+ecran: tuple&lt;/span&gt;&lt;span style=&quot;background-color: initial;&quot;&gt;(HEIGHT, WEIGHT)&lt;/span&gt;&lt;/div&gt;&lt;div style=&quot;text-align: left; font-size: 15px;&quot;&gt;&lt;span style=&quot;background-color: initial; font-size: 15px;&quot;&gt;+font: Font&lt;/span&gt;&lt;/div&gt;&lt;div style=&quot;text-align: left; font-size: 15px;&quot;&gt;&lt;span style=&quot;background-color: initial; font-size: 15px;&quot;&gt;+bouton:&lt;/span&gt;&lt;/div&gt;&lt;div style=&quot;text-align: left; font-size: 15px;&quot;&gt;&lt;br style=&quot;font-size: 15px;&quot;&gt;&lt;/div&gt;&lt;div style=&quot;text-align: left; font-size: 15px;&quot;&gt;&lt;span style=&quot;background-color: initial; font-size: 15px;&quot;&gt;__init__(config)&lt;/span&gt;&lt;/div&gt;&lt;div style=&quot;text-align: left; font-size: 15px;&quot;&gt;&lt;span style=&quot;background-color: initial; font-size: 15px;&quot;&gt;get_setting():dict&lt;/span&gt;&lt;/div&gt;&lt;div style=&quot;text-align: left; font-size: 15px;&quot;&gt;affiche_setting():void&lt;/div&gt;&lt;div style=&quot;text-align: left; font-size: 15px;&quot;&gt;&lt;br style=&quot;font-size: 15px;&quot;&gt;&lt;/div&gt;" style="rounded=1;whiteSpace=wrap;html=1;verticalAlign=top;fontSize=15;fillColor=#76608a;fontColor=#ffffff;strokeColor=#432D57;" parent="1" vertex="1">
                    <mxGeometry x="1620" y="-719" width="329" height="270" as="geometry"/>
                </mxCell>
                <mxCell id="89" value="Jeu&lt;br style=&quot;font-size: 15px;&quot;&gt;&lt;br style=&quot;font-size: 15px;&quot;&gt;&lt;div style=&quot;text-align: left; font-size: 15px;&quot;&gt;&lt;span style=&quot;background-color: initial; font-size: 15px;&quot;&gt;+ecran: tuple&lt;/span&gt;&lt;span style=&quot;background-color: initial;&quot;&gt;(HEIGHT, WEIGHT)&lt;/span&gt;&lt;/div&gt;&lt;div style=&quot;text-align: left; font-size: 15px;&quot;&gt;&lt;span style=&quot;background-color: initial; font-size: 15px;&quot;&gt;+font: Font&lt;/span&gt;&lt;/div&gt;&lt;div style=&quot;text-align: left; font-size: 15px;&quot;&gt;&lt;span style=&quot;background-color: initial; font-size: 15px;&quot;&gt;+bouton:&lt;/span&gt;&lt;/div&gt;&lt;div style=&quot;text-align: left; font-size: 15px;&quot;&gt;&lt;br style=&quot;font-size: 15px;&quot;&gt;&lt;/div&gt;&lt;div style=&quot;text-align: left; font-size: 15px;&quot;&gt;&lt;span style=&quot;background-color: initial; font-size: 15px;&quot;&gt;__init__(largeur:int, longueur:int)&lt;/span&gt;&lt;/div&gt;&lt;div style=&quot;text-align: left; font-size: 15px;&quot;&gt;&lt;span style=&quot;background-color: initial; font-size: 15px;&quot;&gt;start_game():void&lt;/span&gt;&lt;/div&gt;&lt;div style=&quot;text-align: left; font-size: 15px;&quot;&gt;&lt;br style=&quot;font-size: 15px;&quot;&gt;&lt;/div&gt;" style="rounded=1;whiteSpace=wrap;html=1;verticalAlign=top;fontSize=15;fillColor=#76608a;fontColor=#ffffff;strokeColor=#432D57;" parent="1" vertex="1">
                    <mxGeometry x="1243" y="-420" width="329" height="270" as="geometry"/>
                </mxCell>
                <mxCell id="90" value="&lt;span style=&quot;background-color: rgb(26, 26, 26);&quot;&gt;&amp;lt; import&amp;nbsp;&lt;/span&gt;" style="endArrow=none;html=1;fontColor=#F0F0F0;entryX=0;entryY=0.25;entryDx=0;entryDy=0;exitX=1.002;exitY=0.289;exitDx=0;exitDy=0;fillColor=#6a00ff;strokeColor=#3700CC;exitPerimeter=0;fontSize=15;" parent="1" source="7" target="72" edge="1">
                    <mxGeometry width="50" height="50" relative="1" as="geometry">
                        <mxPoint x="1450" y="280.00000000000045" as="sourcePoint"/>
                        <mxPoint x="1455" y="710.0000000000005" as="targetPoint"/>
                    </mxGeometry>
                </mxCell>
                <mxCell id="91" value="" style="endArrow=none;html=1;fontColor=#F0F0F0;entryX=0.5;entryY=1;entryDx=0;entryDy=0;exitX=0.324;exitY=0;exitDx=0;exitDy=0;fillColor=#6a00ff;strokeColor=#3700CC;exitPerimeter=0;fontSize=15;" parent="1" source="7" target="65" edge="1">
                    <mxGeometry width="50" height="50" relative="1" as="geometry">
                        <mxPoint x="129.16999999999962" y="110" as="sourcePoint"/>
                        <mxPoint x="129.16999999999962" y="-89.99999999999955" as="targetPoint"/>
                    </mxGeometry>
                </mxCell>
                <mxCell id="92" value="&lt;span style=&quot;&quot;&gt;&amp;nbsp;&amp;lt; import&amp;nbsp;&lt;/span&gt;" style="edgeLabel;html=1;align=center;verticalAlign=middle;resizable=0;points=[];fontColor=#F0F0F0;rotation=90;fontSize=15;labelBackgroundColor=#1A1A1A;" parent="91" vertex="1" connectable="0">
                    <mxGeometry x="-0.1009" y="2" relative="1" as="geometry">
                        <mxPoint as="offset"/>
                    </mxGeometry>
                </mxCell>
                <mxCell id="94" value="" style="endArrow=none;html=1;fontColor=#F0F0F0;entryX=0.75;entryY=1;entryDx=0;entryDy=0;exitX=0.5;exitY=0;exitDx=0;exitDy=0;fillColor=#6a00ff;strokeColor=#3700CC;fontSize=15;" edge="1" parent="1" source="72" target="69">
                    <mxGeometry width="50" height="50" relative="1" as="geometry">
                        <mxPoint x="1810" y="260" as="sourcePoint"/>
                        <mxPoint x="1810" y="60" as="targetPoint"/>
                    </mxGeometry>
                </mxCell>
                <mxCell id="95" value="&amp;nbsp;&amp;lt; import&amp;nbsp;" style="edgeLabel;html=1;align=center;verticalAlign=middle;resizable=0;points=[];fontColor=#F0F0F0;rotation=90;fontSize=15;labelBackgroundColor=#1A1A1A;" vertex="1" connectable="0" parent="94">
                    <mxGeometry x="-0.1009" y="2" relative="1" as="geometry">
                        <mxPoint as="offset"/>
                    </mxGeometry>
                </mxCell>
                <mxCell id="96" value="" style="endArrow=none;html=1;entryX=0;entryY=0.5;entryDx=0;entryDy=0;exitX=1;exitY=0.5;exitDx=0;exitDy=0;fontSize=15;" edge="1" parent="1" source="3" target="3">
                    <mxGeometry width="50" height="50" relative="1" as="geometry">
                        <mxPoint x="550" y="300" as="sourcePoint"/>
                        <mxPoint x="270" y="300" as="targetPoint"/>
                    </mxGeometry>
                </mxCell>
                <mxCell id="97" value="" style="endArrow=none;html=1;exitX=0;exitY=0.25;exitDx=0;exitDy=0;entryX=1;entryY=0.25;entryDx=0;entryDy=0;fontSize=15;" edge="1" parent="1">
                    <mxGeometry width="50" height="50" relative="1" as="geometry">
                        <mxPoint x="410" y="1200" as="sourcePoint"/>
                        <mxPoint x="530" y="1200" as="targetPoint"/>
                    </mxGeometry>
                </mxCell>
                <mxCell id="98" value="" style="endArrow=none;html=1;exitX=0.001;exitY=0.337;exitDx=0;exitDy=0;fontSize=15;entryX=0.999;entryY=0.337;entryDx=0;entryDy=0;entryPerimeter=0;exitPerimeter=0;" edge="1" parent="1" source="22" target="22">
                    <mxGeometry width="50" height="50" relative="1" as="geometry">
                        <mxPoint x="-162.4999999999999" y="1180" as="sourcePoint"/>
                        <mxPoint x="-42.499999999999886" y="1180" as="targetPoint"/>
                    </mxGeometry>
                </mxCell>
                <mxCell id="99" value="" style="endArrow=none;html=1;exitX=0.001;exitY=0.337;exitDx=0;exitDy=0;fontSize=15;entryX=1.001;entryY=0.337;entryDx=0;entryDy=0;entryPerimeter=0;exitPerimeter=0;" edge="1" parent="1">
                    <mxGeometry width="50" height="50" relative="1" as="geometry">
                        <mxPoint x="270.0000000000001" y="1180" as="sourcePoint"/>
                        <mxPoint x="390.0000000000001" y="1180" as="targetPoint"/>
                    </mxGeometry>
                </mxCell>
                <mxCell id="101" value="" style="endArrow=none;html=1;exitX=0.001;exitY=0.337;exitDx=0;exitDy=0;fontSize=15;entryX=0.999;entryY=0.337;entryDx=0;entryDy=0;entryPerimeter=0;exitPerimeter=0;" edge="1" parent="1">
                    <mxGeometry width="50" height="50" relative="1" as="geometry">
                        <mxPoint x="-24.875" y="1180" as="sourcePoint"/>
                        <mxPoint x="99.875" y="1180" as="targetPoint"/>
                    </mxGeometry>
                </mxCell>
                <mxCell id="102" value="" style="endArrow=none;html=1;exitX=0.001;exitY=0.337;exitDx=0;exitDy=0;fontSize=15;entryX=0.999;entryY=0.337;entryDx=0;entryDy=0;entryPerimeter=0;exitPerimeter=0;" edge="1" parent="1">
                    <mxGeometry width="50" height="50" relative="1" as="geometry">
                        <mxPoint x="114.995" y="1180" as="sourcePoint"/>
                        <mxPoint x="239.745" y="1180" as="targetPoint"/>
                    </mxGeometry>
                </mxCell>
                <mxCell id="103" value="" style="endArrow=none;html=1;exitX=0.001;exitY=0.337;exitDx=0;exitDy=0;fontSize=15;entryX=0.999;entryY=0.337;entryDx=0;entryDy=0;entryPerimeter=0;exitPerimeter=0;" edge="1" parent="1">
                    <mxGeometry width="50" height="50" relative="1" as="geometry">
                        <mxPoint x="-134.875" y="1210.33" as="sourcePoint"/>
                        <mxPoint x="-10.125" y="1210.33" as="targetPoint"/>
                    </mxGeometry>
                </mxCell>
                <mxCell id="104" value="" style="endArrow=none;html=1;exitX=0.001;exitY=0.337;exitDx=0;exitDy=0;fontSize=15;entryX=1.001;entryY=0.337;entryDx=0;entryDy=0;entryPerimeter=0;exitPerimeter=0;" edge="1" parent="1">
                    <mxGeometry width="50" height="50" relative="1" as="geometry">
                        <mxPoint x="550" y="1168" as="sourcePoint"/>
                        <mxPoint x="670" y="1168" as="targetPoint"/>
                    </mxGeometry>
                </mxCell>
                <mxCell id="105" value="" style="endArrow=none;html=1;exitX=0.001;exitY=0.337;exitDx=0;exitDy=0;fontSize=15;entryX=1.001;entryY=0.337;entryDx=0;entryDy=0;entryPerimeter=0;exitPerimeter=0;" edge="1" parent="1">
                    <mxGeometry width="50" height="50" relative="1" as="geometry">
                        <mxPoint x="690" y="1168" as="sourcePoint"/>
                        <mxPoint x="810" y="1168" as="targetPoint"/>
                    </mxGeometry>
                </mxCell>
                <mxCell id="106" value="" style="endArrow=none;html=1;exitX=0.001;exitY=0.337;exitDx=0;exitDy=0;fontSize=15;entryX=1.001;entryY=0.337;entryDx=0;entryDy=0;entryPerimeter=0;exitPerimeter=0;" edge="1" parent="1">
                    <mxGeometry width="50" height="50" relative="1" as="geometry">
                        <mxPoint x="830" y="1168" as="sourcePoint"/>
                        <mxPoint x="950" y="1168" as="targetPoint"/>
                    </mxGeometry>
                </mxCell>
            </root>
        </mxGraphModel>
    </diagram>
</mxfile>